# xmcd
#
# Track frame offsets:
#	150
#	8475
#	22125
#	34840
#	45880
#	59192
#	71085
#	83017
#	93470
#	104145
#
# Disc length: 1561 seconds
#
# Revision: 0
# Processed by: cddbd v1.4PL0 Copyright (c) Steve Scherf et al.
# Submitted via: dBpowerAMP V4.0
#
DISCID=8206170a
DTITLE=Kevin Williams - Hymns of the Old Country Church
DYEAR=1900
DGENRE=
TTITLE0=When The Saints Go Marching In
TTITLE1=Softly and Tenderly
TTITLE2=Amazing Grace
TTITLE3=When the Roll is Called Up Yonder
TTITLE4=Sweet Hour of Prayer
TTITLE5=Nothing But the Blood
TTITLE6=Rock of Ages
TTITLE7=Holy, Holy, Holy
TTITLE8=Power in the Blood
TTITLE9=Just As I Am
EXTD=Instrumental - Southern Gospel
EXTT0=
EXTT1=
EXTT2=
EXTT3=
EXTT4=
EXTT5=
EXTT6=
EXTT7=
EXTT8=
EXTT9=
PLAYORDER=
